PathFileType  4	(X/Y/Z) C:\Users\antoi\Documents\MyRepositories\mobilecap\ResultsAnalysis
DataRate	CameraRate	NumFrames	NumMarkers	Units	OrigDataRate	OrigDataStartFrame	OrigNumFrames
100.0	100.0	5	51	mm	100.0	70	138
Frame#	Time	r_knee			r_shank_antsup			r_ankle			r_calc			r_5meta			r_toe			L_knee			L_shank_antsup			L_ankle			L_calc			L_5meta			L_toe			r_sh2			r_sh3			r_sh4			L_sh2			L_sh3			r_thigh1			r_thigh2			r_thigh3			r_thigh4			r_thigh5			L_thigh1			L_thigh2			L_thigh3			L_thigh4			r.ASIS			r.PSIS			L.ASIS			L.PSIS			C7			R_Shoulder			L_Shoulder			R_Sternum			L_Sternum			R_humerus			R_elbow_med			R_elbow_lat			R_forearm			R_wrist_radius			R_wrist_ulna			L_humerus			L_elbow_med			L_elbow_lat			L_forearm			L_wrist_radius			L_wrist_ulna			R_HJC			L_HJC			R_HJC_reg			L_HJC_reg			
		X1	Y1	Z1	X2	Y2	Z2	X3	Y3	Z3	X4	Y4	Z4	X5	Y5	Z5	X6	Y6	Z6	X7	Y7	Z7	X8	Y8	Z8	X9	Y9	Z9	X10	Y10	Z10	X11	Y11	Z11	X12	Y12	Z12	X13	Y13	Z13	X14	Y14	Z14	X15	Y15	Z15	X16	Y16	Z16	X17	Y17	Z17	X18	Y18	Z18	X19	Y19	Z19	X20	Y20	Z20	X21	Y21	Z21	X22	Y22	Z22	X23	Y23	Z23	X24	Y24	Z24	X25	Y25	Z25	X26	Y26	Z26	X27	Y27	Z27	X28	Y28	Z28	X29	Y29	Z29	X30	Y30	Z30	X31	Y31	Z31	X32	Y32	Z32	X33	Y33	Z33	X34	Y34	Z34	X35	Y35	Z35	X36	Y36	Z36	X37	Y37	Z37	X38	Y38	Z38	X39	Y39	Z39	X40	Y40	Z40	X41	Y41	Z41	X42	Y42	Z42	X43	Y43	Z43	X44	Y44	Z44	X45	Y45	Z45	X46	Y46	Z46	X47	Y47	Z47	X48	Y48	Z48	X49	Y49	Z49	X50	Y50	Z50	X51	Y51	Z51	

70	0.69000000	639.95493	510.45455	-93.54843	577.50684	394.37654	-108.44521	279.74753	237.47795	-165.69619	231.59181	269.18486	-230.66836	271.81519	80.41561	-117.19268	329.20758	65.91584	-175.44759	820.88305	535.05691	-428.71254	880.05529	438.30479	-403.81696	831.95649	90.30717	-387.60248	768.50194	65.06230	-337.08690	978.08881	34.36832	-404.31123	1004.48047	61.24495	-335.16056	500.54302	313.92793	-137.72004	518.83601	436.19958	-79.88036	439.17008	351.08463	-91.94719	801.34910	424.80662	-448.51942	838.14923	308.43734	-452.29813	768.77945	731.64756	-107.30963	764.28313	619.16840	-117.86363	721.31256	595.13030	-69.16662	672.69244	729.97380	-46.95871	667.68863	612.73091	-62.01523	817.47656	797.82932	-458.49678	867.57030	669.97317	-439.67548	716.61338	751.20288	-483.76786	766.99228	624.34910	-456.68185	754.82166	1013.79790	-128.18602	550.67943	1051.10540	-211.82853	755.88575	1027.35438	-392.79763	546.86357	1054.37937	-310.21680	625.66213	1551.39718	-274.42118	707.68325	1485.37292	-91.54269	686.02588	1492.84568	-455.41382	765.96858	1470.96988	-257.12145	761.33370	1466.72314	-304.05678	723.83869	1318.35195	-18.01180	652.57967	1092.94046	-51.29817	674.58642	1118.66825	24.33522	796.79948	992.41217	22.88879	853.41912	884.49281	26.95928	825.91824	868.05303	55.55935	659.81218	1318.01179	-535.15449	557.55711	1121.03524	-482.52308	584.92687	1132.25736	-559.15650	660.61412	981.57406	-548.74528	669.43481	863.81629	-574.39720	633.99315	869.39170	-607.70303	673.72688	935.34730	-168.17689	677.18232	935.26325	-381.53613	684.54658	938.47504	-165.61027	677.77269	944.28611	-340.26019	
71	0.70000000	667.48782	509.72970	-91.18985	603.81251	395.44456	-106.55880	302.53184	247.33011	-164.59356	258.93252	283.44849	-230.25767	282.39080	91.24165	-118.08519	339.56660	72.03728	-174.67347	830.43143	535.25669	-429.46836	887.62758	437.16224	-404.47196	832.38809	90.38802	-387.13682	768.69813	65.32194	-336.96279	978.09465	34.42350	-404.37180	1004.72524	60.45118	-334.91948	524.69831	316.84724	-136.03204	546.14647	438.49031	-77.65580	464.42420	355.50506	-90.32349	808.65688	425.00211	-449.23083	843.23142	308.00618	-452.66656	789.25215	734.39272	-106.03231	788.38536	621.58454	-115.26177	746.18821	596.67258	-66.58963	692.95431	730.08857	-45.85201	691.70844	612.60752	-60.17228	829.70788	798.26955	-459.15527	878.55941	669.91456	-440.64659	728.59657	752.60455	-485.18955	777.57823	625.22863	-457.97845	767.78721	1014.62497	-130.02594	563.57887	1051.73110	-212.95319	769.18402	1029.11226	-394.50021	560.09882	1055.38539	-311.22331	639.31762	1552.63736	-276.36262	720.73884	1486.86801	-93.08012	701.06314	1493.70483	-456.86915	779.59638	1472.12302	-258.33433	775.19400	1467.76484	-305.21330	735.62551	1319.67370	-19.36892	662.87910	1094.77075	-53.74406	684.40658	1120.29632	22.27223	805.08492	992.53857	21.88996	860.26916	883.66385	26.24214	832.52111	867.67259	54.79058	676.91690	1318.54563	-536.42604	574.95387	1121.21522	-484.48418	603.92095	1131.92917	-560.49433	681.39958	982.48007	-547.38993	692.73596	864.74200	-571.99943	657.62440	869.31329	-605.66765	687.11313	936.08319	-170.00647	690.42946	936.84779	-383.37135	697.57801	939.22876	-167.98877	691.39628	945.72023	-342.57410	
72	0.71000000	694.86548	509.71476	-89.01593	630.71524	396.84378	-105.08848	326.42394	256.66074	-163.62139	287.27737	296.36119	-229.99364	295.57483	102.23978	-118.81620	352.36416	78.70574	-173.74693	839.31958	535.36020	-430.04461	894.60308	436.03698	-404.94486	832.75563	90.44797	-386.76437	768.88539	65.51402	-336.86969	978.08735	34.45208	-404.44436	1004.91097	59.86246	-334.78539	549.68038	319.94670	-134.86892	574.03260	440.70533	-75.42639	490.63458	359.59141	-88.75029	815.41411	425.14479	-449.77580	847.90926	307.62379	-453.01703	809.44463	737.61480	-104.73162	811.94658	624.64404	-112.76585	770.63453	598.84741	-64.17291	712.86759	730.68397	-44.73887	715.37757	613.12553	-58.47266	841.48624	798.35121	-459.64524	888.75929	669.38376	-441.40137	740.08238	753.95952	-486.39650	787.35714	625.97411	-459.00882	780.51480	1015.53704	-131.57652	576.21993	1052.33947	-214.23313	782.43807	1030.58996	-395.89119	573.14722	1056.40260	-312.33628	652.88670	1553.95817	-278.16148	733.56963	1488.23632	-94.44442	715.98008	1494.53312	-458.16771	793.06638	1473.20003	-259.32718	788.87585	1468.79371	-306.16928	747.24422	1320.84925	-20.62666	673.06256	1096.49110	-56.00852	694.15606	1121.81108	20.35880	813.27519	992.56739	21.03212	867.00256	882.75051	25.64933	839.03743	867.22902	54.15510	694.15540	1319.04439	-537.51800	592.58198	1121.23532	-486.38876	623.09003	1131.56933	-561.74079	702.47200	983.49413	-546.07429	716.30180	865.80322	-569.63472	681.60580	869.37670	-603.65723	700.15715	936.87921	-171.59570	703.61454	938.22083	-384.95826	710.43872	939.82002	-170.16462	704.97553	947.04791	-344.65791	
73	0.72000000	721.91875	510.50740	-87.01247	657.98179	398.62114	-103.95791	351.21759	265.32843	-162.86968	316.00615	307.63971	-229.97634	311.69798	112.84069	-119.30683	368.06079	85.65927	-172.74258	847.51880	535.37265	-430.46711	901.00806	434.95339	-405.24917	833.11319	90.50455	-386.44677	769.05011	65.70256	-336.79010	978.08286	34.44830	-404.50712	1005.08048	59.39729	-334.70179	575.35691	323.26038	-134.15876	602.23338	442.93821	-73.26756	517.50174	363.38685	-87.27638	821.65720	425.25446	-450.16425	852.22811	307.28934	-453.32893	829.28227	741.34459	-103.45529	834.88583	628.36213	-110.44921	794.52169	601.69386	-61.95214	732.37943	731.85073	-43.70399	738.60936	614.37059	-56.93820	852.80696	798.18255	-460.05500	898.27150	668.54406	-441.97393	751.10868	755.28224	-487.38782	796.47734	626.64660	-459.81016	793.04992	1016.64328	-132.75257	588.67183	1052.97946	-215.66445	795.63059	1031.80303	-396.89956	586.01833	1057.49225	-313.55098	666.35593	1555.38489	-279.81672	746.16217	1489.50840	-95.63467	730.73552	1495.38411	-459.32234	806.36001	1474.22747	-260.10038	802.34919	1469.84433	-306.93063	758.65808	1321.91313	-21.78406	683.10799	1098.14590	-58.06621	703.84559	1123.23306	18.59217	821.37349	992.51336	20.30131	873.62077	881.78390	25.18918	845.46585	866.74563	53.65918	711.50110	1319.56838	-538.36886	610.45308	1121.12860	-488.19521	642.42528	1131.22786	-562.87338	723.80167	984.63299	-544.77508	740.09780	867.03900	-567.28927	705.90264	869.63226	-601.67663	712.88648	937.82585	-172.86760	716.77051	939.39996	-386.22026	723.23262	940.27215	-172.02586	718.50862	948.31449	-346.40058	
74	0.73000000	748.53587	512.14453	-85.17173	685.37304	400.84051	-103.06956	376.70519	273.22775	-162.39063	344.47937	317.15999	-230.16672	331.06310	122.51801	-119.49913	387.06299	92.63730	-171.77031	855.01751	535.30816	-430.77806	906.87552	433.93491	-405.41865	833.48591	90.57230	-386.14679	769.17948	65.92978	-336.71241	978.08641	34.42298	-404.54870	1005.25422	59.00719	-334.63168	601.57795	326.85136	-133.77333	630.47834	445.34166	-71.27001	544.70756	367.02828	-85.95783	827.41492	425.34777	-450.42458	856.22530	307.00097	-453.58401	848.69966	745.58115	-102.23482	857.20003	632.71898	-108.34961	817.78780	605.19999	-59.94133	751.47507	733.61351	-42.83109	761.34945	616.35043	-55.59164	863.67227	797.87064	-460.44598	907.20473	667.55443	-442.41759	761.70569	756.58855	-488.17047	805.05715	627.29585	-460.43448	805.42710	1018.02583	-133.52857	600.99315	1053.71420	-217.20289	808.72245	1032.81621	-397.51979	598.73060	1058.70505	-314.83975	679.70633	1556.93312	-281.33069	758.50320	1490.73187	-96.65773	745.30048	1496.31556	-460.34473	819.46565	1475.24607	-260.66572	815.60216	1470.95272	-307.50998	769.82953	1322.92075	-22.83644	693.02645	1099.77431	-59.92005	713.48322	1124.60018	16.95885	829.37924	992.41266	19.67709	880.12186	880.81705	24.86442	851.79272	866.26782	53.30576	728.91989	1320.19652	-538.91081	628.57044	1120.95674	-489.86868	661.91983	1130.96684	-563.87156	745.34734	985.92660	-543.46107	764.07590	868.49866	-564.94805	730.46042	870.14441	-599.72671	725.34267	938.99739	-173.79124	729.89723	940.44047	-387.12741	736.00643	940.66311	-173.51098	731.97169	949.57468	-347.75168	
